<svg width="960" height="960" viewBox="0 0 960 960" fill="none" xmlns="http://www.w3.org/2000/svg">
<path d="M197.756 664.988C300.922 664.988 384.555 581.355 384.555 478.189C384.555 375.023 300.922 291.391 197.756 291.391C94.5897 291.391 10.957 375.023 10.957 478.189C10.957 581.355 94.5897 664.988 197.756 664.988Z" fill="black"/>
<path d="M145.939 559.637V541.875C134.796 558.804 121.142 566.019 100.804 566.019C68.4844 566.019 50.375 547.424 50.375 514.122V409.771H89.3798V506.075C89.3798 524.115 97.7395 532.995 114.455 532.995C133.68 532.995 145.937 521.341 145.937 503.579V409.771H184.942V559.637H145.939Z" fill="white"/>
<path d="M260.999 409.773V431.421C272.145 414.493 285.796 407.275 306.134 407.275C338.454 407.275 356.563 425.871 356.563 459.173V559.639H317.558V467.222C317.558 449.46 309.199 440.301 292.483 440.301C273.258 440.301 261.001 451.958 261.001 469.72V559.639H221.996V409.773H260.999Z" fill="white"/>
<path d="M477.759 458.063C477.481 444.464 468.286 437.803 449.62 437.803C435.969 437.803 427.052 443.354 427.052 451.681C427.052 457.787 429.838 460.006 440.703 463.338L490.019 477.492C509.8 483.319 519.552 495.809 519.552 515.237C519.552 529.944 512.865 543.822 501.721 552.704C490.575 561.584 474.695 566.025 453.8 566.025C408.108 566.025 383.868 549.096 382.754 516.07H420.924C422.596 524.117 424.266 527.17 428.446 530.223C433.461 533.832 441.262 535.497 451.571 535.497C469.68 535.497 480.545 529.944 480.545 520.788C480.545 514.68 477.203 511.627 467.451 508.577L420.924 494.146C406.435 489.427 401.699 486.93 396.405 481.656C391.112 475.829 388.045 467.226 388.045 457.234C388.045 426.429 411.727 407.279 449.898 407.279C490.297 407.279 514.815 426.429 515.372 458.067H477.759V458.063Z" fill="black"/>
<path d="M613.165 438.634H591.433V520.228C591.433 533.549 593.942 536.602 604.251 536.602C607.315 536.602 609.264 536.323 613.167 535.769V562.965C605.923 565.185 599.516 566.018 590.6 566.018C564.966 566.018 552.428 554.364 552.428 530.773V438.634H533.203V412.823H552.428V372.582H591.433V412.823H613.165V438.634V438.634Z" fill="black"/>
<path d="M777.826 487.758C777.826 536.048 749.406 566.021 703.435 566.021C657.186 566.021 629.047 536.05 629.047 486.648C629.047 437.525 657.186 407.275 703.159 407.275C750.243 407.275 777.826 436.97 777.826 487.758ZM668.052 486.648C668.052 515.512 682.26 534.662 703.435 534.662C724.333 534.662 738.821 515.235 738.821 487.203C738.821 457.785 724.889 438.635 703.435 438.635C682.262 438.635 668.052 457.785 668.052 486.648Z" fill="black"/>
<path d="M844.686 431.976C854.16 415.324 867.531 407.275 886.479 407.275C904.589 407.275 923.255 416.712 933.285 430.866C943.317 444.742 949.445 465.833 949.445 486.927C949.445 532.44 922.698 566.299 886.479 566.299C867.533 566.299 854.16 558.529 844.686 541.877V620.14H805.68V409.773H844.686V431.976V431.976ZM844.686 486.927C844.686 514.957 857.779 533.83 877.563 533.83C897.064 533.83 910.439 514.957 910.439 487.481C910.439 458.618 897.344 439.746 877.563 439.746C857.781 439.745 844.686 458.618 844.686 486.927Z" fill="black"/>
</svg>
